<svg data-name="Layer 1" xmlns="http://www.w3.org/2000/svg" viewBox="0 0 100 100"><title>dummy</title><circle cx="50" cy="49.5" r="50" transform="rotate(-.13 48.426 48.536)" fill="#e6e6e6"/><path d="M50 99.5a50 50 0 0 1-.11-100H50a50 50 0 0 1 .11 100zm0-94h-.1a44 44 0 0 0 .1 88h.1a44 44 0 0 0-.1-88z" fill="#333"/><path fill="#00a99d" d="M45.478 43.067l35.48-.08.08 35.479-35.48.08z"/><circle cx="50" cy="50" r="17.74" transform="rotate(-.13 48.426 48.536)" fill="#0071bc"/><path fill="#ed1e79" d="M47.62 46.42l-29.66 8.02 21.77 21.67 7.89-29.69zM31.66 12.89l-15.3 26.64 30.73-.07-15.43-26.57z"/></svg>